<?xml version="1.0" encoding="UTF-8" standalone="no"?>
<!-- Created with Inkscape (http://www.inkscape.org/) -->

<svg
   width="100mm"
   height="40mm"
   viewBox="0 0 100 40"
   version="1.1"
   id="svg5"
   inkscape:version="1.2.1 (9c6d41e410, 2022-07-14)"
   sodipodi:docname="qr-pointer.svg"
   xmlns:inkscape="http://www.inkscape.org/namespaces/inkscape"
   xmlns:sodipodi="http://sodipodi.sourceforge.net/DTD/sodipodi-0.dtd"
   xmlns="http://www.w3.org/2000/svg"
   xmlns:svg="http://www.w3.org/2000/svg">
  <sodipodi:namedview
     id="namedview7"
     pagecolor="#505050"
     bordercolor="#eeeeee"
     borderopacity="1"
     inkscape:showpageshadow="0"
     inkscape:pageopacity="0"
     inkscape:pagecheckerboard="0"
     inkscape:deskcolor="#505050"
     inkscape:document-units="mm"
     showgrid="false"
     inkscape:zoom="1.4770342"
     inkscape:cx="222.06662"
     inkscape:cy="69.057303"
     inkscape:window-width="1920"
     inkscape:window-height="1009"
     inkscape:window-x="-8"
     inkscape:window-y="328"
     inkscape:window-maximized="1"
     inkscape:current-layer="layer1" />
  <defs
     id="defs2" />
  <g
     inkscape:label="Layer 1"
     inkscape:groupmode="layer"
     id="layer1">
    <g
       aria-label="Or, ring the
Doorbell!"
       id="text1516"
       style="font-weight:bold;font-size:16.9333px;font-family:'Space Mono';-inkscape-font-specification:'Space Mono Bold';fill:#fbcb3b;stroke:#fbcb3b;stroke-width:0.2;stroke-linecap:round;stroke-linejoin:round;fill-opacity:1;stroke-opacity:1">
      <path
         d="m 19.551538,2.0811962 q -0.321733,-0.2201329 -0.761999,-0.2201329 -0.711198,0 -1.134531,0.4571991 -0.304799,0.338666 -0.507999,1.0667979 -0.186266,0.7281319 -0.186266,1.523997 0,0.677332 0.1524,1.2191976 0.321732,1.1345311 0.863598,1.8118631 0.558799,0.677332 1.236131,0.7450652 h 0.135466 q 1.032932,0 1.236131,-1.5747969 0.0508,-0.4402658 0.0508,-1.0329313 0,-1.4562638 -0.186266,-2.2351956 Q 20.110337,2.4706621 19.551538,2.0811962 Z M 17.451809,0.50639927 q 0.237066,-0.0846665 0.778931,-0.0846665 0.575733,0 0.829732,0.0846665 1.94733,0.52493233 2.624662,2.67546143 0.389466,1.3377307 0.389466,2.8109278 0,0.5926655 -0.06773,0.9313315 -0.169333,1.0329313 -0.728132,1.9134629 -0.541865,0.8805316 -1.185331,1.2022641 -0.372532,0.169333 -0.711198,0.169333 -1.236131,0 -2.539995,-1.3546638 -1.083731,-1.1345311 -1.405464,-2.6246615 -0.08467,-0.3555993 -0.08467,-1.2022643 0,-1.2530642 0.186267,-1.9981294 0.507999,-2.08279593 1.913463,-2.52306173 z"
         style="font-family:'Wack Club Sans';-inkscape-font-specification:'Wack Club Sans Bold';text-align:end;text-anchor:end;fill:#fbcb3b;fill-opacity:1;stroke:#fbcb3b;stroke-opacity:1"
         id="path6943" />
      <path
         d="m 27.476308,1.9795964 q -0.507999,-0.084666 -1.202265,-0.084666 -0.270932,0 -0.287866,0.016933 -0.01693,0.016933 -0.08467,1.2191976 l -0.03387,1.2022643 h 0.406399 q 0.863599,0 1.507064,-0.3047994 0.643466,-0.3047994 0.778932,-0.7619985 0.03387,-0.1015998 0.03387,-0.2878661 0,-0.7958651 -1.117598,-0.9990647 z M 25.207246,0.54026587 q 0.423332,-0.1185331 0.745065,-0.1185331 0.0508,0 0.186266,0.0169333 0.1524,0 0.237066,0 1.236131,0.0507999 2.269062,0.57573223 0.660399,0.338666 0.880532,0.7619985 0.237066,0.4233325 0.237066,1.2869308 0,0.6265321 -0.152399,1.0329313 -0.491066,1.2022643 -2.404529,1.5578636 l -0.745065,0.1354664 0.389466,0.4063992 q 0.406399,0.4402658 0.660398,0.7450652 1.540931,1.862663 1.540931,2.9294609 0,0.4741328 -0.4064,0.4741328 -0.135466,0 -0.389465,-0.08467 -0.270933,-0.1016 -0.507999,-0.3725325 -0.237067,-0.2709328 -0.914399,-1.2191976 -1.049864,-1.4562638 -1.100664,-1.4562638 -0.01693,0 -0.08467,0.507999 -0.135466,1.6255968 -0.338666,2.1674624 -0.203199,0.5249325 -0.660398,0.5249325 -0.220133,0 -0.440266,-0.2032 -0.2032,-0.2201327 -0.287866,-0.4910655 -0.06773,-0.338666 -0.06773,-0.9990647 0,-0.4063992 0.06773,-1.862663 0.253999,-4.233325 0.423332,-5.3678561 0.06773,-0.4063992 0.237066,-0.60959883 0.186267,-0.2031996 0.626533,-0.338666 z"
         style="font-family:'Wack Club Sans';-inkscape-font-specification:'Wack Club Sans Bold';text-align:end;text-anchor:end;fill:#fbcb3b;fill-opacity:1;stroke:#fbcb3b;stroke-opacity:1"
         id="path6945" />
      <path
         d="m 32.471617,9.5149149 q 0.1016,-0.033867 0.1524,-0.033867 0.152399,0 0.372532,0.1862663 0.186267,0.2031996 0.186267,0.5079994 0,0.694265 -0.389466,1.371597 -0.389466,0.660399 -0.761999,0.660399 -0.135466,0 -0.237066,-0.1016 -0.2032,-0.220133 -0.2032,-0.440266 0,-0.186266 0.118533,-0.440266 0.03387,-0.06773 0.118534,-0.304799 0.08467,-0.254 0.152399,-0.457199 0.08467,-0.2032 0.169333,-0.423333 0.1016,-0.2201327 0.186267,-0.3555991 0.08467,-0.1523997 0.135466,-0.169333 z"
         style="font-family:'Wack Club Sans';-inkscape-font-specification:'Wack Club Sans Bold';text-align:end;text-anchor:end;fill:#fbcb3b;fill-opacity:1;stroke:#fbcb3b;stroke-opacity:1"
         id="path6947" />
      <path
         d="m 42.800923,1.9795964 q -0.507999,-0.084666 -1.202264,-0.084666 -0.270933,0 -0.287866,0.016933 -0.01693,0.016933 -0.08467,1.2191976 l -0.03387,1.2022643 h 0.406399 q 0.863598,0 1.507064,-0.3047994 0.643465,-0.3047994 0.778931,-0.7619985 0.03387,-0.1015998 0.03387,-0.2878661 0,-0.7958651 -1.117598,-0.9990647 z M 40.531861,0.54026587 q 0.423332,-0.1185331 0.745065,-0.1185331 0.0508,0 0.186266,0.0169333 0.1524,0 0.237067,0 1.236131,0.0507999 2.269062,0.57573223 0.660399,0.338666 0.880531,0.7619985 0.237067,0.4233325 0.237067,1.2869308 0,0.6265321 -0.1524,1.0329313 -0.491066,1.2022643 -2.404529,1.5578636 l -0.745065,0.1354664 0.389466,0.4063992 q 0.406399,0.4402658 0.660399,0.7450652 1.54093,1.862663 1.54093,2.9294609 0,0.4741328 -0.406399,0.4741328 -0.135467,0 -0.389466,-0.08467 Q 43.308922,10.15838 43.071856,9.8874475 42.83479,9.6165147 42.157458,8.6682499 41.107593,7.2119861 41.056793,7.2119861 q -0.01693,0 -0.08467,0.507999 -0.135467,1.6255968 -0.338666,2.1674624 -0.2032,0.5249325 -0.660399,0.5249325 -0.220133,0 -0.440266,-0.2032 -0.203199,-0.2201327 -0.287866,-0.4910655 -0.06773,-0.338666 -0.06773,-0.9990647 0,-0.4063992 0.06773,-1.862663 0.254,-4.233325 0.423333,-5.3678561 0.06773,-0.4063992 0.237066,-0.60959883 0.186266,-0.2031996 0.626532,-0.338666 z"
         style="font-family:'Wack Club Sans';-inkscape-font-specification:'Wack Club Sans Bold';text-align:end;text-anchor:end;fill:#fbcb3b;fill-opacity:1;stroke:#fbcb3b;stroke-opacity:1"
         id="path6949" />
      <path
         d="m 48.91383,0.47253267 q 0.3556,-0.0169333 1.405464,-0.0169333 2.201329,0 2.675462,0.0846665 0.355599,0.0677332 0.558798,0.1862663 0.237067,0.1015998 0.254,0.35559933 v 0.084666 q 0,0.1862663 -0.220133,0.3894659 -0.440266,0.4233325 -1.507064,0.4233325 -0.609598,0 -0.609598,0.0508 0,0.1015998 0.08467,0.6095988 0.2032,1.2191976 0.2032,2.9294609 0,0.4063992 -0.03387,1.2530642 -0.03387,1.2191976 -0.03387,1.4054639 v 0.1523997 q 0.01693,0.0508 0.609599,0.1354664 0.795865,0.1185331 1.269998,0.3894659 0.474132,0.2539995 0.474132,0.5757322 0,0.1862663 -0.186266,0.4063992 -0.423333,0.4571995 -2.827861,0.4571995 -0.118533,0 -0.406399,0 -0.287867,-0.01693 -0.440266,-0.01693 -1.676397,-0.03387 -2.150529,-0.169333 -1.134531,-0.3047991 -1.134531,-0.7281316 0,-0.1185331 0.101599,-0.2539995 0.389466,-0.507999 1.94733,-0.7619985 l 0.592665,-0.1015998 0.03387,-3.0987939 0.03387,-3.0987939 -1.015998,-0.016933 q -0.812799,-0.016933 -1.134532,-0.1015998 -0.321732,-0.084666 -0.474132,-0.3047994 -0.1016,-0.1523997 0.03387,-0.4233325 0.203199,-0.40639923 0.609598,-0.57573223 0.4064,-0.169333 1.286931,-0.2201329 z"
         style="font-family:'Wack Club Sans';-inkscape-font-specification:'Wack Club Sans Bold';text-align:end;text-anchor:end;fill:#fbcb3b;fill-opacity:1;stroke:#fbcb3b;stroke-opacity:1"
         id="path6951" />
      <path
         d="m 61.376749,0.35399957 q 0.169333,-0.1354664 0.270933,-0.1354664 0.304799,0 0.372532,0.7619985 0.08467,0.76199853 0.135467,2.86172773 0,0.2031996 0,0.6095988 0.01693,0.3894659 0.01693,0.5757322 0,2.4045286 -0.220133,3.6575928 -0.06773,0.4402658 -0.253999,0.8635983 -0.169333,0.4063992 -0.3048,0.4910655 -0.0508,0.03387 -0.152399,0.03387 -0.880532,0 -3.132661,-4.334925 l -0.558799,-1.1175978 0.03387,1.0837312 q 0.03387,1.1006645 0.08467,1.185331 0.06773,0.1354664 0.06773,0.5757322 0,0.3047994 -0.06773,0.9821314 -0.135466,1.1514644 -0.728132,1.574797 -0.237066,0.186266 -0.474132,0.186266 -0.321733,0 -0.491066,-0.406399 -0.169333,-0.3555993 -0.169333,-0.9651981 0,-0.4741324 0.06773,-1.0329313 0.118534,-1.1345311 0.118534,-3.0818606 0,-1.0667979 -0.01693,-1.6594634 -0.01693,-0.3555993 -0.01693,-0.846665 0,-0.5418656 0.1016,-0.7958651 0.220133,-0.54186563 0.558799,-0.54186563 0.237066,0 0.457199,0.23706623 0.541865,0.5926655 2.319862,3.725326 1.015998,1.8118631 1.117598,1.8118631 0.01693,0 0.01693,-0.016933 0,-0.033867 0.01693,-0.3894659 0.01693,-0.3725326 0.03387,-0.9990647 0.01693,-0.6434654 0.03387,-1.2361309 l 0.06773,-2.4553285 0.253999,-0.5418656 q 0.254,-0.54186563 0.440266,-0.66039873 z"
         style="font-family:'Wack Club Sans';-inkscape-font-specification:'Wack Club Sans Bold';text-align:end;text-anchor:end;fill:#fbcb3b;fill-opacity:1;stroke:#fbcb3b;stroke-opacity:1"
         id="path6953" />
      <path
         d="m 66.202738,0.69266557 q 0.355599,-0.169333 0.795865,-0.169333 0.914398,0 1.405464,0.62653213 0.491066,0.6095988 0.491066,1.1683977 0,0.3725326 -0.169333,0.5418656 -0.169333,0.169333 -0.220133,0.169333 -0.186266,0 -0.778932,-0.4402658 -0.338666,-0.2539995 -0.660399,-0.2539995 -0.440265,0 -0.846665,0.4571991 -0.186266,0.2201329 -0.355599,0.5757322 -0.169333,0.3555993 -0.2032,0.5926655 -0.06773,0.4741324 -0.101599,0.8127984 -0.03387,0.3725326 -0.03387,0.5757322 0,0.9143982 0.270933,1.7271966 0.287866,0.8127984 0.728132,1.1514644 0.237066,0.1862663 0.795865,0.1862663 0.592665,0 0.745065,-0.0508 0.1524,-0.1185331 0.169333,-0.1862663 0,-0.1523997 -0.1016,-0.7111986 l -0.03387,-0.2370662 -0.507999,-0.033867 q -1.456264,-0.1015998 -1.456264,-0.677332 0,-0.2201329 0.237066,-0.4741324 l 0.220133,-0.2370662 0.677332,-0.0508 q 0.186266,-0.016933 0.728132,-0.033867 0.541865,-0.033867 0.745065,-0.0508 0.220133,-0.016933 0.609599,-0.016933 0.304799,0 0.338666,0.016933 0.1524,0.033867 0.253999,0.2031996 0.118533,0.169333 0.118533,0.3555993 0,0.016933 -0.01693,0.0508 0,0.033867 0,0.0508 -0.03387,0.169333 -0.253999,0.3894659 -0.2032,0.2201329 -0.338666,0.2201329 -0.08467,0 -0.08467,0.067733 0,0.1354664 0.08467,0.5249323 0.08467,0.4233325 0.08467,0.8635983 0,0.3555993 -0.01693,0.5757322 -0.03387,1.2361307 -0.355599,1.5239967 -0.118534,0.08467 -0.2032,0.08467 -0.237066,0 -0.474132,-0.321733 l -0.1524,-0.220133 q -0.660399,0.220133 -0.897465,0.254 -0.304799,0.03387 -0.457199,0.03387 -1.253064,0 -2.031996,-0.8297314 -1.015998,-1.0667979 -1.015998,-3.2342603 0,-0.067733 0,-0.2370662 0.01693,-0.169333 0.01693,-0.2539995 0.0508,-1.4562638 0.457199,-2.7601279 0.3048,-0.9990647 0.745065,-1.5409303 0.4064,-0.50799903 1.049865,-0.77893183 z"
         style="font-family:'Wack Club Sans';-inkscape-font-specification:'Wack Club Sans Bold';text-align:end;text-anchor:end;fill:#fbcb3b;fill-opacity:1;stroke:#fbcb3b;stroke-opacity:1"
         id="path6955" />
      <path
         d="m 78.818045,0.15079997 q 0.677332,-0.0507999 1.507064,-0.0507999 0.829731,0 1.54093,0.0507999 2.150529,0.169333 2.150529,0.7281319 0,0.1015998 -0.0508,0.22013293 -0.253999,0.6265321 -2.116662,1.015998 l -0.575732,0.1015998 0.03387,2.9971941 v 1.185331 q 0,1.6763967 -0.0508,2.2859955 -0.0508,0.6095988 -0.220133,0.8974649 -0.304799,0.5418659 -0.711198,0.5418659 h -0.06773 Q 79.986443,10.05678 79.749377,9.633448 79.51231,9.1931822 79.444577,8.61745 q 0,-0.0508 -0.0508,-0.4063992 -0.0508,-0.3555993 -0.08467,-0.5249323 -0.2032,-1.2530642 -0.2032,-3.8099925 V 3.3173271 l 0.03387,-1.2022643 -0.626532,-0.067733 Q 77.497248,1.9287965 76.819916,1.6578637 76.142584,1.3869309 76.142584,1.0990648 q 0,-0.33866603 0.728132,-0.59266553 0.728131,-0.2539995 1.947329,-0.3555993 z"
         style="font-family:'Wack Club Sans';-inkscape-font-specification:'Wack Club Sans Bold';text-align:end;text-anchor:end;fill:#fbcb3b;fill-opacity:1;stroke:#fbcb3b;stroke-opacity:1"
         id="path6957" />
      <path
         d="m 90.586694,8.8714495 q 0,-0.067733 -0.169333,-1.2699975 -0.1524,-1.2022643 -0.1524,-1.2530642 0,-0.0508 -1.202264,-0.0508 h -1.219198 l -0.03387,0.2370662 q -0.101599,0.8635983 -0.169333,1.2699975 -0.253999,1.8795963 -0.863598,2.2182624 -0.1016,0.0508 -0.186266,0.0508 -0.186267,0 -0.3556,-0.3555995 -0.135466,-0.2709328 -0.169333,-2.7770612 -0.06773,-2.7431946 -0.135466,-3.4543932 -0.08467,-1.015998 -0.08467,-1.4562638 0,-0.9990647 0.389465,-1.16839773 0.1524,-0.0846665 0.3556,0.0507999 0.626532,0.47413243 1.049864,2.92946093 0.118533,0.7619985 0.2032,0.846665 0.03387,0.033867 0.812798,0.1015998 0.778932,0.0508 1.168398,0.0508 0.0508,0 0.135466,-0.016933 h 0.03387 q 0.03387,-0.016933 0.1016,-1.1006645 0.1016,-2.4722618 0.558799,-2.96332753 0.152399,-0.1523997 0.372532,-0.1523997 0.254,0 0.440266,0.2031996 0.1524,0.169333 0.186266,0.32173273 0.03387,0.1354664 0.1016,0.7450652 0.186267,1.6763967 0.220133,4.9445236 v 1.2191976 q 0,0.9651981 -0.135466,1.2699975 -0.118533,0.2709328 -0.3556,0.5249323 -0.220132,0.2539994 -0.355599,0.2539994 -0.203199,0 -0.372532,-0.3725325 -0.169333,-0.3894659 -0.169333,-0.846665 z"
         style="font-family:'Wack Club Sans';-inkscape-font-specification:'Wack Club Sans Bold';text-align:end;text-anchor:end;fill:#fbcb3b;fill-opacity:1;stroke:#fbcb3b;stroke-opacity:1"
         id="path6959" />
      <path
         d="m 95.395752,2.0811962 q 0,0.1185331 0.08467,0.9990647 0.08467,0.8805316 0.08467,0.9990647 0,0.2370662 0.01693,0.2878661 0.03387,0.0508 0.1016,0.033867 0.626532,-0.2031996 1.710263,-0.2031996 0.541866,0 0.914398,0.084666 0.677332,0.1523997 0.677332,0.507999 0,0.2201329 -0.321733,0.5418656 -0.237066,0.2370662 -0.338666,0.2878661 -0.101599,0.0508 -0.491065,0.067733 -0.440266,0.033867 -1.354664,0.169333 -0.914398,0.1185331 -0.948265,0.1523997 -0.01693,0.016933 -0.0508,1.2530642 v 0.5587989 q 0,0.677332 0.06773,0.7450652 0.118533,0.1185331 1.049865,0.1185331 0.660399,0 1.303864,-0.084667 0.643465,-0.1015998 0.914398,-0.1015998 0.270933,0 0.609599,0.1523997 0.389466,0.1862663 0.389466,0.4402658 0,0.2201329 -0.270933,0.507999 -0.220133,0.2539995 -1.49013,0.4741326 -1.269998,0.203199 -2.590795,0.220133 -1.168398,0 -1.405464,-0.135467 l -0.237066,-0.135466 -0.03387,-1.7779966 q -0.118533,-4.9953235 -0.118533,-5.9097217 0,-0.5757322 0.08467,-0.8805316 0.1524,-0.50799903 0.558799,-0.72813193 0.423333,-0.2370662 1.388531,-0.3725326 0.474132,-0.0677332 1.134531,-0.0677332 1.388531,0 2.031996,0.2709328 0.406399,0.1862663 0.406399,0.4233325 0,0.23706623 -0.355599,0.57573223 -0.220133,0.2031996 -0.897465,0.2539995 -2.506128,0.2201329 -2.624661,0.2709328 z"
         style="font-family:'Wack Club Sans';-inkscape-font-specification:'Wack Club Sans Bold';text-align:end;text-anchor:end;fill:#fbcb3b;fill-opacity:1;stroke:#fbcb3b;stroke-opacity:1"
         id="path6961" />
      <path
         d="m 36.755767,23.768592 q -0.372533,-0.08467 -0.897465,-0.08467 H 35.23177 v 0.186266 q -0.304799,5.875856 -0.304799,6.248388 0,0.03387 0.0508,0.03387 0.169333,0 0.643465,-0.135467 0.491066,-0.135466 0.761998,-0.270932 1.777997,-0.863599 1.777997,-2.946395 0,-0.0508 -0.01693,-0.152399 0,-0.1016 0,-0.1524 -0.169333,-2.421462 -1.388531,-2.726261 z m -1.761063,-1.608664 q 0.406399,-0.08467 0.965198,-0.08467 1.151464,0 2.031996,0.474132 0.897465,0.457199 1.151464,1.253064 0.287866,0.931332 0.372533,2.438395 0,0.0508 0,0.169333 0.01693,0.1016 0.01693,0.1524 0,0.982132 -0.474132,2.353729 -0.355599,1.100664 -1.117598,1.862663 -1.032931,1.032931 -2.370662,1.219197 -0.118533,0.01693 -0.474132,0.01693 -1.456264,0 -1.862663,-0.169333 -0.118533,-0.0508 -0.1524,-0.1016 -0.01693,-0.0508 0.01693,-0.2032 0.118533,-0.829731 0.423333,-7.264385 0.03387,-0.931332 0.1016,-1.219198 0.06773,-0.304799 0.270932,-0.491066 0.3048,-0.270932 1.100665,-0.406399 z"
         style="font-family:'Wack Club Sans';-inkscape-font-specification:'Wack Club Sans Bold';text-align:end;text-anchor:end;fill:#fbcb3b;fill-opacity:1;stroke:#fbcb3b;stroke-opacity:1"
         id="path6963" />
      <path
         d="m 45.561075,24.056458 q -0.321733,-0.220133 -0.761999,-0.220133 -0.711199,0 -1.134531,0.457199 -0.304799,0.338666 -0.507999,1.066798 -0.186266,0.728132 -0.186266,1.523997 0,0.677332 0.152399,1.219197 0.321733,1.134532 0.863599,1.811864 0.558799,0.677332 1.236131,0.745065 h 0.135466 q 1.032931,0 1.236131,-1.574797 0.0508,-0.423333 0.0508,-1.032931 0,-1.473198 -0.186267,-2.252129 -0.338666,-1.354664 -0.897464,-1.74413 z m -2.09973,-1.574797 q 0.237067,-0.08467 0.778932,-0.08467 0.575732,0 0.829732,0.08467 1.998129,0.541865 2.658528,2.810928 0.355599,1.320797 0.355599,2.658528 0,0.592665 -0.06773,0.948265 -0.169333,1.032931 -0.728132,1.913462 -0.541865,0.880532 -1.185331,1.202265 -0.372532,0.169333 -0.711198,0.169333 -1.236131,0 -2.539995,-1.354664 -1.083732,-1.134531 -1.405464,-2.624662 -0.08467,-0.355599 -0.08467,-1.202264 0,-1.253064 0.186266,-1.998129 0.507999,-2.082796 1.913463,-2.523062 z"
         style="font-family:'Wack Club Sans';-inkscape-font-specification:'Wack Club Sans Bold';text-align:end;text-anchor:end;fill:#fbcb3b;fill-opacity:1;stroke:#fbcb3b;stroke-opacity:1"
         id="path6965" />
      <path
         d="m 54.112376,24.056458 q -0.321733,-0.220133 -0.761999,-0.220133 -0.711199,0 -1.134531,0.457199 -0.304799,0.338666 -0.507999,1.066798 -0.186266,0.728132 -0.186266,1.523997 0,0.677332 0.152399,1.219197 0.321733,1.134532 0.863599,1.811864 0.558799,0.677332 1.236131,0.745065 h 0.135466 q 1.032931,0 1.236131,-1.574797 0.0508,-0.423333 0.0508,-1.032931 0,-1.473198 -0.186267,-2.252129 -0.338666,-1.354664 -0.897464,-1.74413 z m -2.09973,-1.574797 q 0.237067,-0.08467 0.778932,-0.08467 0.575732,0 0.829732,0.08467 1.998129,0.541865 2.658528,2.810928 0.355599,1.320797 0.355599,2.658528 0,0.592665 -0.06773,0.948265 -0.169333,1.032931 -0.728132,1.913462 -0.541865,0.880532 -1.185331,1.202265 -0.372532,0.169333 -0.711198,0.169333 -1.236131,0 -2.539995,-1.354664 -1.083732,-1.134531 -1.405464,-2.624662 -0.08467,-0.355599 -0.08467,-1.202264 0,-1.253064 0.186266,-1.998129 0.507999,-2.082796 1.913463,-2.523062 z"
         style="font-family:'Wack Club Sans';-inkscape-font-specification:'Wack Club Sans Bold';text-align:end;text-anchor:end;fill:#fbcb3b;fill-opacity:1;stroke:#fbcb3b;stroke-opacity:1"
         id="path6967" />
      <path
         d="m 62.037147,23.887125 q -0.507999,-0.08467 -1.202264,-0.08467 -0.270933,0 -0.287866,0.01693 -0.01693,0.01693 -0.08467,1.219197 l -0.03387,1.202264 h 0.406399 q 0.863598,0 1.507064,-0.304799 0.643465,-0.304799 0.778932,-0.761998 0.03387,-0.1016 0.03387,-0.287867 0,-0.795865 -1.117598,-0.999064 z m -2.269062,-1.439331 q 0.423333,-0.118533 0.745065,-0.118533 0.0508,0 0.186267,0.01693 0.152399,0 0.237066,0 1.236131,0.0508 2.269062,0.575733 0.660399,0.338666 0.880532,0.761998 0.237066,0.423333 0.237066,1.286931 0,0.626532 -0.1524,1.032931 -0.491066,1.202265 -2.404528,1.557864 l -0.745066,0.135466 0.389466,0.406399 q 0.406399,0.440266 0.660399,0.745066 1.54093,1.862663 1.54093,2.929461 0,0.474132 -0.406399,0.474132 -0.135466,0 -0.389466,-0.08467 -0.270933,-0.101599 -0.507999,-0.372532 -0.237066,-0.270933 -0.914398,-1.219198 -1.049865,-1.456264 -1.100665,-1.456264 -0.01693,0 -0.08467,0.507999 -0.135466,1.625597 -0.338666,2.167463 -0.2032,0.524932 -0.660399,0.524932 -0.220133,0 -0.440266,-0.203199 -0.203199,-0.220133 -0.287866,-0.491066 -0.06773,-0.338666 -0.06773,-0.999065 0,-0.406399 0.06773,-1.862663 0.254,-4.233325 0.423333,-5.367856 0.06773,-0.406399 0.237066,-0.609599 0.186266,-0.203199 0.626532,-0.338666 z"
         style="font-family:'Wack Club Sans';-inkscape-font-specification:'Wack Club Sans Bold';text-align:end;text-anchor:end;fill:#fbcb3b;fill-opacity:1;stroke:#fbcb3b;stroke-opacity:1"
         id="path6969" />
      <path
         d="m 70.486848,27.900317 q -0.254,-0.118533 -0.761999,-0.118533 -0.575732,0 -1.185331,0.186266 l -0.457199,0.135466 v 0.677332 q 0,0.812799 0.0508,1.286931 l 0.03387,0.609599 0.372532,-0.0508 q 1.117598,-0.135466 1.811863,-0.474132 0.338666,-0.1524 0.575733,-0.406399 0.237066,-0.270933 0.270932,-0.524933 0.01693,-0.06773 0.01693,-0.186266 0,-0.812798 -0.728132,-1.134531 z m -0.355599,-3.843859 q -0.220133,-0.118533 -0.829732,-0.118533 -0.677332,0 -1.371597,0.152399 l -0.220133,0.03387 0.203199,1.117598 q 0.2032,1.117598 0.321733,1.134531 h 0.03387 q 0.474132,0 1.320797,-0.440266 0.389466,-0.2032 0.626532,-0.457199 0.254,-0.270933 0.287866,-0.626532 v -0.1524 q 0,-0.440266 -0.372532,-0.643465 z m -1.100665,-1.761063 q 0.541866,-0.08467 0.931332,-0.08467 0.914398,0 1.54093,0.321733 0.304799,0.135466 0.491066,0.592665 0.186266,0.440266 0.186266,0.931332 0,0.491065 -0.118533,0.863598 -0.118533,0.355599 -0.457199,0.880532 -0.372533,0.524932 -0.372533,0.592665 0,0.0508 0.237066,0.169333 0.524933,0.270933 0.863599,0.999065 0.355599,0.711198 0.355599,1.507064 0,0.0508 -0.01693,0.152399 0,0.08467 0,0.135467 -0.1524,1.828796 -2.946395,2.573861 -0.778931,0.2032 -1.64253,0.2032 -0.880531,0 -1.134531,-0.135467 l -0.270933,-0.118533 -0.0508,-0.761998 q -0.186266,-3.081861 -0.389465,-5.486389 -0.1016,-1.117598 -0.1016,-1.777997 v -0.135466 q 0.0508,-0.491066 0.694265,-0.795865 0.761999,-0.3556 2.201329,-0.626532 z"
         style="font-family:'Wack Club Sans';-inkscape-font-specification:'Wack Club Sans Bold';text-align:end;text-anchor:end;fill:#fbcb3b;fill-opacity:1;stroke:#fbcb3b;stroke-opacity:1"
         id="path6971" />
      <path
         d="m 76.142571,23.988725 q 0,0.118533 0.08467,0.999064 0.08467,0.880532 0.08467,0.999065 0,0.237066 0.01693,0.287866 0.03387,0.0508 0.1016,0.03387 0.626532,-0.2032 1.710263,-0.2032 0.541866,0 0.914399,0.08467 0.677332,0.152399 0.677332,0.507999 0,0.220132 -0.321733,0.541865 -0.237066,0.237066 -0.338666,0.287866 -0.1016,0.0508 -0.491066,0.06773 -0.440266,0.03387 -1.354664,0.169333 -0.914398,0.118534 -0.948265,0.1524 -0.01693,0.01693 -0.0508,1.253064 v 0.558799 q 0,0.677332 0.06773,0.745065 0.118533,0.118534 1.049864,0.118534 0.660399,0 1.303864,-0.08467 0.643466,-0.1016 0.914399,-0.1016 0.270932,0 0.609598,0.1524 0.389466,0.186266 0.389466,0.440266 0,0.220133 -0.270933,0.507999 -0.220132,0.253999 -1.49013,0.474132 -1.269997,0.2032 -2.590795,0.220133 -1.168398,0 -1.405464,-0.135466 l -0.237066,-0.135467 -0.03387,-1.777996 q -0.118533,-4.995324 -0.118533,-5.909722 0,-0.575732 0.08467,-0.880532 0.1524,-0.507999 0.558799,-0.728131 0.423332,-0.237067 1.38853,-0.372533 0.474133,-0.06773 1.134531,-0.06773 1.388531,0 2.031996,0.270933 0.4064,0.186266 0.4064,0.423332 0,0.237066 -0.3556,0.575732 -0.220133,0.2032 -0.897465,0.254 -2.506128,0.220133 -2.624661,0.270933 z"
         style="font-family:'Wack Club Sans';-inkscape-font-specification:'Wack Club Sans Bold';text-align:end;text-anchor:end;fill:#fbcb3b;fill-opacity:1;stroke:#fbcb3b;stroke-opacity:1"
         id="path6973" />
      <path
         d="m 82.475634,22.803394 q 0.321733,-0.609599 0.728132,-0.609599 0.186266,0 0.355599,0.186266 0.321733,0.355599 0.491066,1.608664 0.135466,1.134531 0.135466,2.150529 0,0.745065 -0.0508,1.811863 0,0.287866 -0.03387,0.880531 -0.01693,0.592666 -0.01693,0.778932 0,0.254 0.01693,0.287866 0.06773,0.2032 0.186266,0.270933 0.118533,0.06773 0.745065,0.06773 0.948265,0 1.659464,-0.118533 0.575732,-0.06773 0.728132,-0.06773 0.524932,0 0.863598,0.287866 0.1524,0.1524 0.1524,0.270933 0,0.135466 -0.118533,0.321733 -0.237067,0.423332 -1.591731,0.643465 -1.761063,0.287866 -2.844794,0.287866 -1.202264,0 -1.371597,-0.321733 -0.0508,-0.101599 -0.118533,-2.506128 -0.0508,-2.421462 -0.0508,-4.301058 0,-1.219198 0.01693,-1.473197 0.01693,-0.270933 0.118533,-0.457199 z"
         style="font-family:'Wack Club Sans';-inkscape-font-specification:'Wack Club Sans Bold';text-align:end;text-anchor:end;fill:#fbcb3b;fill-opacity:1;stroke:#fbcb3b;stroke-opacity:1"
         id="path6975" />
      <path
         d="m 90.349619,22.803394 q 0.321733,-0.609599 0.728132,-0.609599 0.186267,0 0.3556,0.186266 0.321732,0.355599 0.491065,1.608664 0.135467,1.134531 0.135467,2.150529 0,0.745065 -0.0508,1.811863 0,0.287866 -0.03387,0.880531 -0.01693,0.592666 -0.01693,0.778932 0,0.254 0.01693,0.287866 0.06773,0.2032 0.186266,0.270933 0.118534,0.06773 0.745066,0.06773 0.948264,0 1.659463,-0.118533 0.575732,-0.06773 0.728132,-0.06773 0.524932,0 0.863598,0.287866 0.1524,0.1524 0.1524,0.270933 0,0.135466 -0.118533,0.321733 -0.237066,0.423332 -1.59173,0.643465 -1.761064,0.287866 -2.844795,0.287866 -1.202264,0 -1.371597,-0.321733 -0.0508,-0.101599 -0.118533,-2.506128 -0.0508,-2.421462 -0.0508,-4.301058 0,-1.219198 0.01693,-1.473197 0.01693,-0.270933 0.118533,-0.457199 z"
         style="font-family:'Wack Club Sans';-inkscape-font-specification:'Wack Club Sans Bold';text-align:end;text-anchor:end;fill:#fbcb3b;fill-opacity:1;stroke:#fbcb3b;stroke-opacity:1"
         id="path6977" />
      <path
         d="m 98.562271,22.515527 q 0.253999,-0.253999 0.457199,-0.253999 0.203199,0 0.423332,0.220133 0.321733,0.321733 0.389466,0.829732 0.06773,0.507999 0.06773,2.523061 0,2.336796 -0.08467,2.726262 -0.237066,1.117597 -0.829732,1.117597 -0.186266,0 -0.406399,-0.135466 -0.321733,-0.2032 -0.389466,-0.491066 -0.0508,-0.304799 -0.08467,-1.811863 0,-0.220133 -0.01693,-0.626532 0,-0.406399 0,-0.592665 0,-2.472262 0.1524,-2.980261 0.08467,-0.287866 0.321733,-0.524933 z m -0.372533,9.431849 q 0,-0.01693 -0.01693,-0.06773 0,-0.0508 0,-0.06773 0,-0.355599 0.220133,-0.626532 0.220133,-0.270933 0.558799,-0.270933 0.338666,0 0.558798,0.270933 0.220133,0.270933 0.220133,0.626532 0,0.389466 -0.270932,0.660399 -0.270933,0.237066 -0.491066,0.237066 -0.237066,0 -0.507999,-0.237066 -0.237066,-0.2032 -0.270933,-0.524932 z"
         style="font-family:'Wack Club Sans';-inkscape-font-specification:'Wack Club Sans Bold';text-align:end;text-anchor:end;fill:#fbcb3b;fill-opacity:1;stroke:#fbcb3b;stroke-opacity:1"
         id="path6979" />
    </g>
    <path
       style="fill:#fbcb3b;stroke:#fbcb3b;stroke-width:0.2;stroke-linecap:round;stroke-linejoin:round;stroke-opacity:1;fill-opacity:1"
       id="path4763"
       d="m 30.304806,26.446179 c -0.799047,-0.717411 -1.605413,-1.427112 -2.416225,-2.131365 -2.0112,-1.839473 -4.476383,-3.040677 -6.823837,-4.382875 -1.687751,-0.752601 -3.458374,-1.307856 -5.251561,-1.745005 -1.268425,-0.252531 -2.557178,-0.397317 -3.845931,-0.497378 -0.245582,-0.01907 -0.491157,-0.05441 -0.737398,-0.04809 -0.24487,0.0063 -0.486555,0.05716 -0.729833,0.08575 -1.5805135,0.532446 -2.5089678,1.366747 -3.3057489,2.806789 -0.5640641,1.115575 -0.7543615,2.330697 -0.7034279,3.566975 0.087412,1.10218 0.6442546,2.050805 1.1898233,2.982785 0.4572371,0.810739 1.0374628,1.537973 1.6045728,2.272176 0.5601599,0.718153 1.1325587,1.42662 1.6904057,2.146561 0.486349,0.622718 1.075456,1.151668 1.604404,1.736217 0.478639,0.589119 1.123215,1.007483 1.652354,1.542603 0.0031,-0.01548 0.02445,-0.04151 0.0094,-0.04641 -0.214539,-0.06995 -0.451121,-0.02212 -0.675215,-0.0486 -0.247833,-0.0293 -0.494975,-0.06563 -0.740526,-0.11018 -0.787358,-0.142851 -0.910555,-0.195133 -1.679509,-0.406815 -1.4062703,-0.386308 -2.7245599,-1.046832 -4.0050768,-1.7344 0.5160145,0.331576 -1.4554637,-0.805923 -1.093837,-0.600435 1.0182074,0.578586 2.0335703,1.162177 3.0529773,1.738644 0.038501,0.02178 -0.080755,-0.107622 -0.1099034,-0.07435 -0.243945,0.278419 -0.064293,0.305758 0.1094655,0.415153 1.0391874,0.3312 2.0586824,0.718206 3.1106494,1.008068 1.119873,0.250991 2.187064,0.692171 3.301234,0.957283 0.861957,0.266454 1.761563,0.340342 2.64989,0.466154 0.07761,-0.02783 0.170062,-0.03005 0.232839,-0.0835 0.359003,-0.305705 0.317828,-0.936942 0.32853,-1.343112 0.0068,-0.257559 0.0041,-0.515279 0.0062,-0.772919 0.0085,-0.28121 0.01692,-0.562417 0.02537,-0.843627 0.06752,-1.093912 0.134575,-2.186466 0.04774,-3.280648 0,0 -3.508453,-1.737156 -3.508453,-1.737156 v 0 c 0.165314,1.079486 0.09772,2.170237 0.0385,3.256782 -0.02655,0.529199 -0.04002,1.059011 -0.06789,1.588141 -0.003,0.0563 -0.03917,0.662016 -0.08226,0.827651 -0.01908,0.07335 -0.174877,0.02912 -0.186393,0.02843 C 14.119896,33.894577 13.251418,33.7499 12.40515,33.498861 11.311587,33.18956 10.230827,32.834767 9.1304911,32.548142 8.0635654,32.22236 7.0231653,31.806636 5.9388464,31.543447 c -0.1146696,0.0132 -0.2484051,-0.02511 -0.3440091,0.03957 -0.1493914,0.101063 -0.407815,0.388152 -0.1546381,0.545685 1.5445113,0.961048 3.0997091,1.897147 4.7163138,2.727367 1.297467,0.66353 2.61512,1.315963 4.042031,1.652254 0.736565,0.182875 2.863463,0.828506 3.482917,0.211902 0.08591,-0.08551 0.11221,-0.214894 0.168315,-0.322342 -0.02952,-0.08324 -0.03704,-0.17799 -0.08857,-0.249721 -0.07184,-0.100007 -0.531496,-0.45592 -0.602009,-0.513046 -0.416402,-0.337344 -0.279734,-0.217231 -0.66814,-0.590743 C 16.394377,34.951403 16.29848,34.85763 16.202191,34.764261 15.682208,34.16766 15.113328,33.624137 14.57341,33.045848 14.015767,32.328743 13.455514,31.613936 12.891297,30.902257 12.320645,30.174846 11.727748,29.460601 11.2475,28.668118 10.720938,27.779574 10.130349,26.888229 9.9705071,25.848226 9.8795221,24.680197 10.045376,23.53097 10.565467,22.46867 c 0.706604,-1.32804 1.598297,-2.123061 3.086956,-2.493218 1.742195,-0.100099 3.493822,0.193473 5.197223,0.534705 1.787844,0.468963 3.567771,1.022491 5.226487,1.848857 -5.803652,-3.388382 -0.86061,-0.639635 0.219504,0.496234 0.786313,0.688286 1.559655,1.390384 2.349143,2.074905 0,0 3.660021,1.51603 3.660021,1.51603 z" />
  </g>
</svg>
