<?xml version="1.0" encoding="UTF-8" standalone="no"?>
<svg
   width="720"
   height="720"
   viewBox="0 0 720 720"
   fill="none"
   version="1.1"
   id="svg8029"
   sodipodi:docname="passport-emblem.svg"
   inkscape:version="1.2.1 (9c6d41e410, 2022-07-14)"
   xmlns:inkscape="http://www.inkscape.org/namespaces/inkscape"
   xmlns:sodipodi="http://sodipodi.sourceforge.net/DTD/sodipodi-0.dtd"
   xmlns="http://www.w3.org/2000/svg"
   xmlns:svg="http://www.w3.org/2000/svg">
  <defs
     id="defs8033" />
  <sodipodi:namedview
     id="namedview8031"
     pagecolor="#505050"
     bordercolor="#eeeeee"
     borderopacity="1"
     inkscape:showpageshadow="0"
     inkscape:pageopacity="0"
     inkscape:pagecheckerboard="0"
     inkscape:deskcolor="#505050"
     showgrid="false"
     inkscape:zoom="0.74389787"
     inkscape:cx="131.06638"
     inkscape:cy="227.18172"
     inkscape:window-width="1920"
     inkscape:window-height="1009"
     inkscape:window-x="-8"
     inkscape:window-y="-8"
     inkscape:window-maximized="1"
     inkscape:current-layer="svg8029" />
  <g
     id="g4892">
    <path
       fill-rule="evenodd"
       clip-rule="evenodd"
       d="m 311.13778,269.60364 49.78512,29.02809 48.22313,-28.16151 0.1467,56.17758 3.28555,0.0394 0.17056,-57.76919 48.27789,27.29075 0.32618,116.02254 -48.55917,27.15519 -0.0448,-58.99934 -51.82617,30.15948 v 59.57984 l -50.02181,28.46581 -49.93533,-28.99845 0.18254,-55.83945 50.7603,29.11217 1.50304,-2.89955 -50.40333,-29.2947 48.19112,-28.1217 z"
       fill="#ffffff"
       id="path7967"
       style="fill:#ffffff;fill-opacity:1;stroke-width:2.9923" />
    <path
       fill-rule="evenodd"
       clip-rule="evenodd"
       d="m 362.45407,413.20389 47.08096,27.24795 z m 46.93433,-27.47238 c 0.021,-0.015 0.0478,-0.015 0.0689,-0.003 0.021,0.015 0.0358,0.0358 0.0358,0.0628 l 0.0418,54.66048 -0.17953,-54.54078 -46.90113,27.29283 47.00286,-27.47537 0.0779,54.72332 -47.08066,-27.24795"
       fill="#ffffff"
       id="path7969"
       style="fill:#ffffff;fill-opacity:1;stroke-width:2.9923" />
    <path
       fill-rule="evenodd"
       clip-rule="evenodd"
       d="m 360.92319,295.16842 -48.26712,-28.14295 48.24589,-27.98048 48.24706,27.96192"
       fill="#ffffff"
       id="path7971"
       style="fill:#ffffff;fill-opacity:1;stroke-width:2.9923" />
    <path
       d="m 582.95123,286.28605 37.69111,-10.66608 4.40468,15.56988 c 0.79895,2.82204 0.98147,5.40171 0.54161,7.73871 -0.42192,2.34597 -1.42136,4.34483 -2.99531,5.99598 -1.56198,1.64757 -3.62967,2.83611 -6.20604,3.56534 -2.61229,0.73939 -4.99716,0.79744 -7.14564,0.17355 -2.13949,-0.62718 -3.98575,-1.85433 -5.53576,-3.68144 -1.53804,-1.83099 -2.71403,-4.18174 -3.52494,-7.05286 l -2.78883,-9.8462 7.17855,-2.03118 2.30707,8.15315 c 0.389,1.37407 0.89171,2.47105 1.50812,3.29034 0.63138,0.82857 1.38244,1.37766 2.25619,1.64787 0.88274,0.26661 1.9091,0.2352 3.07311,-0.0945 1.167,-0.33005 2.06169,-0.84174 2.68709,-1.53566 0.63736,-0.6972 1.01438,-1.56586 1.13108,-2.60599 0.1287,-1.04342 0,-2.24633 -0.38599,-3.60813 l -1.26874,-4.49085 -30.35099,8.58822 z m 23.22928,16.34549 -14.56954,14.26074 -2.81277,-9.93806 14.62341,-14.077 z"
       fill="#ffffff"
       id="path7973"
       style="fill:#ffffff;fill-opacity:1;stroke-width:2.9923" />
    <path
       d="m 592.82883,327.10383 38.98679,-3.79664 2.64819,27.18482 -7.65432,0.74508 -1.72956,-17.76144 -7.99545,0.7786 1.5949,16.37181 -7.67227,0.74718 -1.59491,-16.37181 -8.0134,0.78039 1.72956,17.76144 -7.65134,0.74538 z"
       fill="#ffffff"
       id="path7975"
       style="fill:#ffffff;fill-opacity:1;stroke-width:2.9923" />
    <path
       d="m 595.29451,369.02845 39.04063,3.1928 -1.31961,16.12854 c -0.23938,2.92048 -1.01739,5.39812 -2.334,7.4269 -1.30764,2.04375 -3.02223,3.55785 -5.14975,4.5483 -2.11558,0.99047 -4.51541,1.37646 -7.19651,1.15803 -2.69607,-0.22143 -5.00314,-1.00542 -6.92719,-2.35195 -1.91208,-1.33158 -3.33344,-3.12996 -4.26105,-5.39513 -0.92762,-2.26219 -1.26873,-4.88943 -1.02636,-7.87576 l 0.81391,-9.94943 7.43588,0.60744 -0.67028,8.19594 c -0.1167,1.42434 0.033,2.63322 0.45185,3.62667 0.41593,1.00542 1.0503,1.7924 1.89712,2.36094 0.86178,0.57153 1.89114,0.90368 3.08507,1.00242 1.20889,0.0987 2.27116,-0.0629 3.18681,-0.48775 0.9306,-0.42191 1.67868,-1.09817 2.23824,-2.0228 0.56256,-0.92761 0.90069,-2.0976 1.01739,-3.50698 l 0.38002,-4.65005 -31.43419,-2.57338 z"
       fill="#ffffff"
       id="path7977"
       style="fill:#ffffff;fill-opacity:1;stroke-width:2.9923" />
    <path
       d="m 621.83028,443.9349 -2.54047,9.1026 -24.33644,-6.79554 c -2.81277,-0.78398 -5.07495,-2.13651 -6.78953,-4.05756 -1.70264,-1.91808 -2.78883,-4.23413 -3.26462,-6.94815 -0.46081,-2.71103 -0.24835,-5.65247 0.63437,-8.81832 0.8977,-3.20777 2.24424,-5.84997 4.04262,-7.92962 1.81033,-2.07667 3.93787,-3.48604 6.38258,-4.23412 2.45967,-0.7421 5.09589,-0.72114 7.90866,0.0629 l 24.33645,6.79254 -2.54646,9.12055 -23.54347,-6.57409 c -1.30464,-0.36207 -2.54346,-0.40397 -3.71945,-0.1227 -1.18195,0.29325 -2.20233,0.87375 -3.07009,1.74451 -0.86478,0.87077 -1.48719,1.98689 -1.8672,3.35139 -0.38003,1.36149 -0.42492,2.63322 -0.1317,3.81519 0.28726,1.19094 0.86178,2.22029 1.72057,3.08208 0.8588,0.86178 1.93902,1.47221 3.24068,1.83728 z"
       fill="#ffffff"
       id="path7979"
       style="fill:#ffffff;fill-opacity:1;stroke-width:2.9923" />
    <path
       d="m 575.7278,456.02082 35.0489,17.49303 -7.29225,14.61444 c -1.31063,2.62425 -2.77686,4.63507 -4.40169,6.03547 -1.62782,1.40939 -3.33342,2.22629 -5.11086,2.44772 -1.78641,0.23638 -3.55785,-0.0838 -5.31434,-0.96054 -1.33456,-0.66728 -2.38786,-1.54103 -3.15688,-2.62425 -0.76005,-1.07723 -1.23882,-2.27715 -1.43331,-3.59975 -0.19451,-1.32259 -0.1077,-2.69607 0.26332,-4.12339 l -0.34411,-0.17057 c -0.77202,1.37946 -1.80737,2.49558 -3.10004,3.34839 -1.30165,0.86178 -2.75292,1.34654 -4.36278,1.45725 -1.5949,0.1137 -3.23769,-0.24835 -4.92834,-1.09218 -1.88215,-0.93958 -3.32445,-2.25919 -4.32987,-3.95583 -0.99345,-1.69365 -1.46622,-3.65959 -1.41535,-5.90083 0.0598,-2.23526 0.73611,-4.65005 2.02878,-7.2384 z m 2.60031,11.87946 -2.61228,5.23953 c -0.91864,1.83429 -1.2448,3.36037 -0.98148,4.57524 0.25734,1.22685 1.00841,2.14848 2.25321,2.77087 0.90069,0.44886 1.78341,0.6254 2.64221,0.52665 0.87376,-0.0897 1.67869,-0.43687 2.42077,-1.03533 0.75108,-0.59547 1.39741,-1.43332 1.93902,-2.51653 l 2.69009,-5.39214 z m 13.81249,6.89428 -2.33998,4.68894 c -0.46082,0.92463 -0.71816,1.82232 -0.76902,2.69309 -0.0509,0.87375 0.1167,1.65474 0.49971,2.34597 0.37704,0.7002 0.97549,1.25377 1.79539,1.66372 1.17597,0.58649 2.30706,0.63137 3.39627,0.1347 1.0892,-0.49671 1.98689,-1.45126 2.69307,-2.86662 l 2.40881,-4.82659 z"
       fill="#ffffff"
       id="path7981"
       style="fill:#ffffff;fill-opacity:1;stroke-width:2.9923" />
    <path
       d="m 555.43695,492.88905 31.52397,23.25621 -5.62255,7.61842 -25.33287,-18.68995 -9.67413,13.11528 -6.1881,-4.56627 z"
       fill="#ffffff"
       id="path7983"
       style="fill:#ffffff;fill-opacity:1;stroke-width:2.9923" />
    <path
       d="m 551.80728,557.89693 -27.88829,-27.51127 6.64889,-6.73868 27.88832,27.50828 z"
       fill="#ffffff"
       id="path7985"
       style="fill:#ffffff;fill-opacity:1;stroke-width:2.9923" />
    <path
       d="m 496.9523,583.82827 7.72016,-5.64349 c 0.68224,0.71515 1.41537,1.27771 2.20234,1.68168 0.78399,0.40695 1.60688,0.64333 2.46267,0.71217 0.85579,0.0688 1.72956,-0.0418 2.62425,-0.33215 0.88872,-0.27231 1.76846,-0.72414 2.63324,-1.35852 1.53205,-1.11912 2.57937,-2.46267 3.14191,-4.02763 0.55359,-1.55601 0.60744,-3.26462 0.16758,-5.11985 -0.45483,-1.84924 -1.41835,-3.78228 -2.89356,-5.79909 -1.53505,-2.1006 -3.12099,-3.64164 -4.75479,-4.6261 -1.63977,-0.96653 -3.2676,-1.41237 -4.88643,-1.33458 -1.61884,0.0957 -3.18082,0.69421 -4.68297,1.79239 -0.84382,0.61643 -1.53205,1.2867 -2.06469,2.00486 -0.5416,0.73012 -0.92461,1.49016 -1.14904,2.28612 -0.22442,0.8139 -0.29025,1.64277 -0.19449,2.48959 0.0957,0.86178 0.35308,1.72358 0.77799,2.58237 l -7.75607,5.5986 c -0.8887,-1.49614 -1.49016,-3.17184 -1.80435,-5.03007 -0.32616,-1.84624 -0.3112,-3.76132 0.0418,-5.73924 0.36206,-1.97193 1.14306,-3.90198 2.34896,-5.7961 1.19692,-1.88516 2.88159,-3.62069 5.05401,-5.20961 2.86065,-2.09163 5.88288,-3.33942 9.06669,-3.74038 3.17782,-0.38003 6.30778,0.15859 9.38388,1.62183 3.07309,1.46323 5.87988,3.9289 8.41735,7.39698 2.54346,3.48006 4.03662,6.91224 4.4765,10.30252 0.44286,3.39029 -0.009,6.54119 -1.35552,9.4527 -1.34654,2.91152 -3.42618,5.39513 -6.23597,7.45085 -1.91208,1.4004 -3.88102,2.42676 -5.89783,3.07908 -2.01084,0.66429 -4.00371,0.93958 -5.98463,0.82288 -1.97193,-0.1047 -3.88401,-0.61042 -5.73325,-1.5171 -1.84626,-0.90966 -3.55487,-2.24124 -5.12583,-4.00071 z"
       fill="#ffffff"
       id="path7987"
       style="fill:#ffffff;fill-opacity:1;stroke-width:2.9923" />
    <path
       d="m 419.71785,610.31319 c -1.3615,-4.0875 -1.72956,-7.81592 -1.10416,-11.18226 0.62539,-3.36635 2.03477,-6.23597 4.22814,-8.60588 2.18139,-2.36691 4.93431,-4.10544 8.26176,-5.21559 3.3394,-1.11015 6.59205,-1.37047 9.76389,-0.77202 3.16885,0.59847 6.01155,2.04974 8.52508,4.3568 2.51055,2.32204 4.44359,5.52081 5.80209,9.59932 1.36151,4.0875 1.73553,7.81292 1.12212,11.17628 -0.62539,3.36634 -2.02879,6.23298 -4.21018,8.59989 -2.18139,2.36691 -4.9403,4.10844 -8.27972,5.21859 -3.32745,1.11013 -6.57409,1.37047 -9.73996,0.78697 -3.17484,-0.58051 -6.02351,-2.03178 -8.54603,-4.35081 -2.51952,-2.31904 -4.46152,-5.52081 -5.82303,-9.61129 z m 9.18339,-3.05814 c 0.80494,2.41777 1.83129,4.34782 3.0761,5.78712 1.23582,1.44528 2.63622,2.38188 4.20418,2.81277 1.55601,0.43687 3.22871,0.35608 5.0211,-0.23939 1.77743,-0.59247 3.16586,-1.53205 4.16231,-2.81875 0.99343,-1.28669 1.55898,-2.87861 1.69364,-4.77872 0.11969,-1.89412 -0.22144,-4.05159 -1.02935,-6.47236 -0.80493,-2.41778 -1.82532,-4.35081 -3.05814,-5.79311 -1.24779,-1.44229 -2.65418,-2.37589 -4.22216,-2.80678 -1.56796,-0.43389 -3.24366,-0.35309 -5.02108,0.23938 -1.7894,0.59847 -3.17784,1.53804 -4.16231,2.81876 -0.99643,1.28668 -1.55301,2.8786 -1.67569,4.77273 -0.1317,1.90011 0.20349,4.05757 1.0114,6.47835 z"
       fill="#ffffff"
       id="path7989"
       style="fill:#ffffff;fill-opacity:1;stroke-width:2.9923" />
    <path
       d="m 402.58389,593.20018 5.35025,38.80424 -26.4909,3.65361 -1.0503,-7.61841 17.11002,-2.35794 -1.09518,-7.95954 -15.42535,2.12752 -1.05329,-7.63636 15.42534,-2.12753 -2.15146,-15.59292 z"
       fill="#ffffff"
       id="path7991"
       style="fill:#ffffff;fill-opacity:1;stroke-width:2.9923" />
    <path
       d="m 338.64098,596.33611 -6.04268,38.70251 -9.35454,-1.46024 2.42527,-15.53307 -15.25059,-2.38188 -2.42528,15.53307 -9.3357,-1.45726 6.04268,-38.70251 9.3354,1.45727 -2.42796,15.55401 15.25059,2.37888 2.42825,-15.55103 z"
       fill="#ffffff"
       id="path7993"
       style="fill:#ffffff;fill-opacity:1;stroke-width:2.9923" />
    <path
       d="m 283.89253,584.19931 9.55352,3.504 -25.89393,32.22714 -11.83428,-4.33884 1.07634,-41.32975 9.55353,3.504 -1.44976,30.68013 0.28726,0.1047 z m -4.03214,14.9406 -19.96917,-7.32219 2.47584,-6.75064 19.96916,7.32217 z"
       fill="#ffffff"
       id="path7995"
       style="fill:#ffffff;fill-opacity:1;stroke-width:2.9923" />
    <path
       d="m 207.0725,573.02604 8.16302,4.98219 c -0.40277,0.90667 -0.64126,1.79838 -0.71576,2.67811 -0.0745,0.88274 0.0198,1.72956 0.28247,2.54945 0.26272,0.8169 0.6987,1.58293 1.30764,2.29809 0.59158,0.72115 1.34444,1.35852 2.25889,1.91808 1.62153,0.99045 3.26281,1.44528 4.92324,1.36747 1.64937,-0.0838 3.24816,-0.68224 4.79637,-1.79838 1.53715,-1.1251 2.95671,-2.75292 4.25895,-4.88643 1.35522,-2.2203 2.17542,-4.27302 2.46118,-6.16116 0.26781,-1.88217 0.0574,-3.55785 -0.63108,-5.02408 -0.70618,-1.46025 -1.85404,-2.67812 -3.44295,-3.64763 -0.8926,-0.5446 -1.77324,-0.92463 -2.6419,-1.14306 -0.87945,-0.22143 -1.72986,-0.28426 -2.55065,-0.18852 -0.83845,0.1017 -1.62961,0.35609 -2.37409,0.76902 -0.76215,0.41594 -1.45965,0.98448 -2.09283,1.70264 l -8.13309,-5.03007 c 1.04491,-1.39442 2.36512,-2.59134 3.96031,-3.58778 1.58444,-1.00542 3.35918,-1.72357 5.32392,-2.15148 1.95846,-0.41892 4.04261,-0.43089 6.25272,-0.0389 2.19935,0.38601 4.44717,1.2807 6.74378,2.6811 3.02551,1.84925 5.33049,4.16531 6.91462,6.95712 1.56647,2.79183 2.26008,5.88887 2.08115,9.29112 -0.17894,3.40226 -1.38783,6.93617 -3.62639,10.60473 -2.24572,3.67755 -4.85082,6.36764 -7.8162,8.07026 -2.96508,1.69963 -6.05014,2.48362 -9.25521,2.34897 -3.20506,-0.1347 -6.29311,-1.10717 -9.26448,-2.9205 -2.02429,-1.23582 -3.72363,-2.66016 -5.09799,-4.27601 -1.38096,-1.60687 -2.39535,-3.3454 -3.04378,-5.22157 -0.65502,-1.86122 -0.91595,-3.82118 -0.78219,-5.8769 0.1338,-2.05572 0.71397,-4.14135 1.74033,-6.26589 z"
       fill="#ffffff"
       id="path7997"
       style="fill:#ffffff;fill-opacity:1;stroke-width:2.9923" />
    <path
       d="m 210.72491,543.66552 -26.3733,28.96554 -7.0005,-6.37362 11.15202,-12.24752 -0.38181,-0.3501 -20.72652,3.53093 -8.245,-7.50771 22.03774,-3.57879 4.15212,-25.55132 8.37219,7.62141 -3.1539,17.95385 6.01964,-0.98747 7.14712,-7.84882 z"
       fill="#ffffff"
       id="path7999"
       style="fill:#ffffff;fill-opacity:1;stroke-width:2.9923" />
    <path
       d="m 180.78059,514.22121 -31.10175,23.81577 -16.60491,-21.68525 6.10491,-4.67398 10.8489,14.16858 6.37841,-4.88345 -10,-13.06143 6.11987,-4.68595 10.00029,13.05843 6.39338,-4.89542 -10.84892,-14.16858 6.10491,-4.67398 z"
       fill="#ffffff"
       id="path8001"
       style="fill:#ffffff;fill-opacity:1;stroke-width:2.9923" />
    <path
       d="m 156.54649,479.92338 -34.83974,17.90896 -7.39698,-14.39301 c -1.34056,-2.60929 -2.02699,-5.10187 -2.0593,-7.47777 -0.0494,-2.38486 0.53412,-4.54233 1.7502,-6.47236 1.20469,-1.92107 2.99799,-3.49502 5.37957,-4.72187 2.41569,-1.2388 4.7395,-1.76845 6.97117,-1.58292 2.22059,0.19449 4.27152,1.03235 6.15307,2.51652 1.86991,1.49018 3.48695,3.56085 4.85084,6.21503 l 4.67787,9.1026 -6.63455,3.40824 -3.87323,-7.53464 c -0.65292,-1.27173 -1.36239,-2.24722 -2.12843,-2.92647 -0.78339,-0.68823 -1.62871,-1.07724 -2.53657,-1.17 -0.91925,-0.0868 -1.91748,0.14655 -2.99471,0.7002 -1.07752,0.55359 -1.85403,1.23284 -2.32981,2.03478 -0.48714,0.81092 -0.68493,1.73553 -0.59367,2.77985 0.0802,1.04731 0.44376,2.20234 1.09069,3.4591 l 2.13351,4.15334 28.05199,-14.41994 z m -26.00405,-11.43062 11.46353,-16.85866 4.72156,9.18639 -11.55121,16.69108 z"
       fill="#ffffff"
       id="path8003"
       style="fill:#ffffff;fill-opacity:1;stroke-width:2.9923" />
    <path
       d="m 138.83143,441.75349 -37.39875,11.65205 -2.816315,-9.03975 30.057975,-9.36593 -4.84723,-15.55701 7.34101,-2.28612 z"
       fill="#ffffff"
       id="path8005"
       style="fill:#ffffff;fill-opacity:1;stroke-width:2.9923" />
    <path
       d="m 127.47203,395.71386 1.25168,10.09603 -40.50044,-8.29767 -1.55049,-12.50784 37.24857,-17.93589 1.25199,10.09904 -27.94839,12.73527 0.03765,0.30222 z m -15.1324,3.24366 -2.61617,-21.10775 7.13694,-0.88572 2.61648,21.10775 z"
       fill="#ffffff"
       id="path8007"
       style="fill:#ffffff;fill-opacity:1;stroke-width:2.9923" />
    <path
       d="m 87.975965,323.4568 39.066965,2.86664 -0.58799,8.0119 -23.688,13.89209 -0.0183,0.24805 22.54734,1.65446 -0.69273,9.44253 -39.06708,-2.86664 0.59628,-8.1265 23.63765,-13.72304 0.0237,-0.32436 -22.50932,-1.65175 z"
       fill="#ffffff"
       id="path8009"
       style="fill:#ffffff;fill-opacity:1;stroke-width:2.9923" />
    <path
       d="m 133.83577,298.22746 -3.85947,13.95522 -37.754765,-10.44135 3.854385,-13.93698 c 1.06386,-3.84661 2.73573,-6.94993 5.01563,-9.30936 2.27086,-2.37499 5.02857,-3.9277 8.27343,-4.65753 3.23259,-0.73342 6.80899,-0.55777 10.72951,0.52635 3.93279,1.0877 7.10345,2.77835 9.51195,5.07165 2.41211,2.28104 3.98816,5.02559 4.72845,8.23364 0.72773,3.20446 0.56135,6.72402 -0.49912,10.55836 z m -9.11517,2.67842 1.23882,-4.47978 c 0.5847,-2.11377 0.72264,-4.00043 0.41443,-5.66025 -0.31719,-1.6751 -1.18345,-3.11201 -2.59822,-4.31043 -1.42404,-1.21398 -3.49382,-2.19665 -6.20993,-2.94773 -2.71612,-0.75136 -4.98459,-0.96831 -6.80511,-0.65172 -1.83309,0.31329 -3.31159,1.11494 -4.4358,2.40492 -1.13289,1.27413 -1.99855,2.99291 -2.59672,5.15604 l -1.20321,4.35053 z"
       fill="#ffffff"
       id="path8011"
       style="fill:#ffffff;fill-opacity:1;stroke-width:2.9923" />
    <path
       d="m 215.62841,188.42682 -23.9265,-31.01556 12.81216,-9.88389 c 2.32233,-1.7912 4.67669,-2.88279 7.06395,-3.27509 2.38935,-0.40965 4.6665,-0.16128 6.83143,0.74538 2.15716,0.89651 4.05728,2.41001 5.70065,4.54023 1.65115,2.1404 2.62635,4.37535 2.92588,6.70517 0.30162,2.31156 -0.0718,4.57254 -1.12062,6.78297 -1.04881,2.21011 -2.7598,4.23022 -5.13241,6.06061 l -7.90537,6.09833 -4.55609,-5.90622 6.51186,-5.02349 c 1.13079,-0.87256 1.92315,-1.79748 2.3765,-2.77536 0.4635,-0.98568 0.61969,-1.9839 0.46828,-2.9944 -0.15918,-1.02038 -0.60504,-2.00546 -1.33696,-2.95431 -0.74,-0.95934 -1.57545,-1.6353 -2.50665,-2.02818 -0.93899,-0.40307 -1.94021,-0.50033 -3.00338,-0.29205 -1.06347,0.20826 -2.15536,0.74478 -3.27598,1.60926 l -3.69521,2.85046 19.26479,24.9732 z"
       fill="#ffffff"
       id="path8013"
       style="fill:#ffffff;fill-opacity:1;stroke-width:2.9923" />
    <path
       d="m 254.30938,152.82973 -8.91919,4.89782 -7.27071,-40.69719 11.04851,-6.0672 30.44014,27.97329 -8.91888,4.89811 -22.1691,-21.25587 -0.26811,0.1473 z m -8.61098,-12.85914 18.64298,-10.23819 3.4618,6.3039 -18.64298,10.23788 z"
       fill="#ffffff"
       id="path8015"
       style="fill:#ffffff;fill-opacity:1;stroke-width:2.9923" />
    <path
       d="m 297.30764,105.94237 c -0.59727,-1.27533 -1.50185,-2.10748 -2.71403,-2.49589 -1.20411,-0.40485 -2.67573,-0.29265 -4.41425,0.33664 -1.15085,0.41682 -2.05601,0.91385 -2.71463,1.49136 -0.65891,0.57752 -1.08471,1.19961 -1.27742,1.866 -0.19688,0.65442 -0.18013,1.31961 0.0512,1.99527 0.17563,0.56046 0.45931,1.00692 0.85101,1.33967 0.40366,0.32854 0.89799,0.57003 1.48269,0.72442 0.59246,0.1383 1.26782,0.20558 2.02608,0.20229 0.75825,-0.003 1.58952,-0.0667 2.49379,-0.1909 l 3.4259,-0.42641 c 1.96564,-0.26392 3.76312,-0.31809 5.39274,-0.16219 1.64157,0.15171 3.10092,0.51169 4.37803,1.07992 1.28909,0.56406 2.39415,1.35074 3.31548,2.35974 0.92133,1.00901 1.65476,2.24873 2.20055,3.71915 0.83007,2.3304 0.96532,4.53933 0.40546,6.62706 -0.55957,2.08743 -1.76995,3.96988 -3.63087,5.64708 -1.84894,1.67299 -4.30833,3.06472 -7.37754,4.17606 -3.08148,1.11553 -5.93434,1.62603 -8.55859,1.53177 -2.62425,-0.0942 -4.91247,-0.85251 -6.86496,-2.27475 -1.95248,-1.42226 -3.46748,-3.56594 -4.54502,-6.43047 l 8.52479,-3.08597 c 0.50181,1.16102 1.17748,2.03507 2.02759,2.62245 0.84981,0.58739 1.84026,0.90698 2.97107,0.95874 1.14276,0.0473 2.36751,-0.16548 3.67425,-0.63856 1.19902,-0.43418 2.15955,-0.96471 2.88159,-1.59251 0.73431,-0.63168 1.22505,-1.31781 1.47222,-2.0584 0.24715,-0.7403 0.24237,-1.48449 -0.015,-2.23226 -0.26391,-0.69093 -0.69452,-1.20651 -1.29207,-1.54614 -0.60206,-0.35158 -1.40579,-0.54877 -2.41121,-0.59187 -0.99763,-0.0589 -2.22448,-0.002 -3.68023,0.17295 l -4.17428,0.49404 c -3.45402,0.42311 -6.39336,0.15141 -8.81833,-0.81511 -2.42885,-0.97848 -4.14315,-2.86692 -5.14257,-5.66474 -0.83666,-2.27385 -0.94767,-4.49145 -0.33335,-6.6531 0.61433,-2.16163 1.83878,-4.11711 3.67365,-5.86611 1.83489,-1.749012 4.14944,-3.129357 6.94305,-4.140762 2.85347,-1.032945 5.50526,-1.44348 7.95506,-1.231935 2.45728,0.195405 4.58242,0.951555 6.37452,2.26908 1.79238,1.31751 3.11529,3.117077 3.9681,5.398407 z"
       fill="#ffffff"
       id="path8017"
       style="fill:#ffffff;fill-opacity:1;stroke-width:2.9923" />
    <path
       d="m 347.80612,95.811313 c -0.35279,-1.363305 -1.0895,-2.34747 -2.20952,-2.95191 -1.10955,-0.61896 -2.57638,-0.778785 -4.40109,-0.47934 -1.20799,0.19824 -2.18857,0.520635 -2.94234,0.96738 -0.75376,0.446745 -1.28638,0.97998 -1.59819,1.59969 -0.31389,0.60714 -0.41922,1.264245 -0.31629,1.97103 0.0701,0.5829 0.26663,1.07394 0.59069,1.47282 0.33663,0.39708 0.778,0.725325 1.32439,0.984465 0.55718,0.24447 1.2086,0.434775 1.95457,0.57093 0.74599,0.135902 1.57485,0.225912 2.48662,0.270212 l 3.44593,0.20976 c 1.98061,0.1014 3.75774,0.37822 5.33081,0.83095 1.58592,0.45035 2.95431,1.07216 4.10514,1.86542 1.16371,0.79116 2.10568,1.76695 2.82594,2.92827 0.72025,1.16101 1.21397,2.51413 1.48028,4.05996 0.38811,2.44321 0.1155,4.63927 -0.81808,6.58876 -0.9336,1.94919 -2.46895,3.57731 -4.60607,4.88435 -2.12484,1.30494 -4.79787,2.22178 -8.01909,2.75052 -3.23379,0.53055 -6.13183,0.50869 -8.69415,-0.0656 -2.56231,-0.57452 -4.67248,-1.74002 -6.33052,-3.4968 -1.65804,-1.75649 -2.75382,-4.14165 -3.28704,-7.15551 l 8.94639,-1.46832 c 0.28008,1.23342 0.78369,2.2167 1.51141,2.95011 0.72775,0.73341 1.64249,1.22953 2.74455,1.48807 1.11464,0.25614 2.35764,0.272 3.72932,0.0469 1.25826,-0.20676 2.29989,-0.55207 3.12486,-1.03623 0.83785,-0.48655 1.44618,-1.07095 1.82501,-1.7532 0.37912,-0.68254 0.51079,-1.41505 0.39559,-2.19724 -0.1326,-0.72774 -0.46111,-1.31333 -0.98626,-1.75709 -0.52725,-0.45603 -1.28102,-0.79744 -2.2616,-1.02427 -0.96981,-0.24147 -2.18647,-0.40994 -3.64941,-0.506 l -4.19403,-0.28068 c -3.47286,-0.21813 -6.31257,-1.02516 -8.5185,-2.42047 -2.20831,-1.40789 -3.54648,-3.57881 -4.01508,-6.512762 -0.40485,-2.38845 -0.1071,-4.588995 0.89351,-6.60102 1.00093,-2.01207 2.56381,-3.709365 4.68865,-5.09184 2.12484,-1.382475 4.65333,-2.314305 7.5849,-2.795475 2.99501,-0.49149 5.67701,-0.40833 8.04632,0.249495 2.37978,0.6432 4.32957,1.7769 5.84965,3.40113 1.5198,1.624185 2.48961,3.63591 2.90943,6.035055 z"
       fill="#ffffff"
       id="path8019"
       style="fill:#ffffff;fill-opacity:1;stroke-width:2.9923" />
    <path
       d="m 371.76613,124.89564 5.04802,-38.845502 16.04774,2.08497 c 2.90853,0.37788 5.34427,1.27305 7.30722,2.68548 1.97791,1.40145 3.41123,3.18846 4.29994,5.361165 0.88872,2.16015 1.16101,4.574337 0.81391,7.242287 -0.34711,2.68081 -1.2418,4.94988 -2.67811,6.80779 -1.42434,1.84686 -3.28855,3.17963 -5.59263,3.99893 -2.30407,0.819 -4.94329,1.03564 -7.91465,0.64963 l -9.90154,-1.2867 0.96053,-7.39728 8.15702,1.05987 c 1.41536,0.18404 2.63024,0.0909 3.64165,-0.27888 1.02635,-0.36835 1.84326,-0.96292 2.4507,-1.78401 0.61042,-0.83395 0.99345,-1.84506 1.14604,-3.0336 0.15561,-1.20141 0.0448,-2.270262 -0.33513,-3.206862 -0.37704,-0.949155 -1.01739,-1.72656 -1.91508,-2.3319 -0.89769,-0.60534 -2.04974,-0.999135 -3.45312,-1.181655 l -4.6291,-0.601155 -4.06355,31.277382 z"
       fill="#ffffff"
       id="path8021"
       style="fill:#ffffff;fill-opacity:1;stroke-width:2.9923" />
    <path
       d="m 451.28969,124.08652 c -1.37944,4.0833 -3.33344,7.27908 -5.86193,9.58736 -2.53149,2.30856 -5.38615,3.74667 -8.56399,4.3146 -3.16884,0.57183 -6.41252,0.29655 -9.73697,-0.82557 -3.33343,-1.12631 -6.08335,-2.88339 -8.25277,-5.27126 -2.16644,-2.38785 -3.55787,-5.26047 -4.17428,-8.61784 -0.59847,-3.36545 -0.21246,-7.08369 1.164,-11.15502 1.37946,-4.083 3.32745,-7.28088 5.84399,-9.59364 2.53149,-2.30826 5.38017,-3.748457 8.54602,-4.320287 3.16886,-0.57213 6.4185,-0.29475 9.75493,0.831555 3.32146,1.122422 6.06839,2.871422 8.24081,5.247012 2.18439,2.37978 3.58179,5.25449 4.19223,8.62413 0.61043,3.36933 0.22742,7.09566 -1.15204,11.17896 z m -9.16843,-3.09763 c 0.8169,-2.41599 1.16101,-4.57404 1.03534,-6.47357 -0.1137,-1.89592 -0.66429,-3.48873 -1.65474,-4.77901 -0.9785,-1.28639 -2.36393,-2.23136 -4.15033,-2.83551 -1.77745,-0.59966 -3.45014,-0.68733 -5.02111,-0.26213 -1.56796,0.42521 -2.98033,1.35492 -4.23112,2.78943 -1.24181,1.43871 -2.26816,3.36605 -3.08507,5.78204 -0.81689,2.41629 -1.167,4.57225 -1.05328,6.46788 0.1257,1.89981 0.68225,3.49471 1.6727,4.785 0.99045,1.29028 2.37589,2.23555 4.15033,2.83521 1.7894,0.60414 3.46209,0.69151 5.02109,0.26242 1.56798,-0.4252 2.97436,-1.35702 4.21317,-2.79571 1.25377,-1.43451 2.28612,-3.35976 3.10302,-5.77605 z"
       fill="#ffffff"
       id="path8023"
       style="fill:#ffffff;fill-opacity:1;stroke-width:2.9923" />
    <path
       d="m 456.94814,147.91278 19.54577,-33.94863 14.02195,8.07324 c 2.54346,1.46323 4.47049,3.18471 5.79011,5.16442 1.33457,1.97493 2.01382,4.10276 2.04076,6.38349 0.0328,2.26967 -0.61941,4.56507 -1.95698,6.8856 -1.35552,2.35406 -3.01924,4.05846 -4.99416,5.11326 -1.96894,1.04402 -4.14733,1.45277 -6.5352,1.22684 -2.37889,-0.23669 -4.8595,-1.09967 -7.44786,-2.58834 l -8.8662,-5.10548 3.71943,-6.46458 7.34313,4.22723 c 1.23881,0.71277 2.36393,1.14726 3.37832,1.30405 1.02935,0.15171 1.95097,0.0204 2.76489,-0.39468 0.81988,-0.4258 1.53205,-1.16371 2.13351,-2.21371 0.60445,-1.0497 0.88872,-2.04135 0.85281,-2.97465 -0.0299,-0.94437 -0.36506,-1.82951 -1.00841,-2.65568 -0.63736,-0.83695 -1.56796,-1.60866 -2.79481,-2.31484 l -4.04561,-2.32832 -15.73654,27.33443 z m 28.04691,-4.51271 -0.47877,20.38211 -8.95299,-5.15306 0.64633,-20.28694 z"
       fill="#ffffff"
       id="path8025"
       style="fill:#ffffff;fill-opacity:1;stroke-width:2.9923" />
    <path
       d="m 511.15381,151.24261 5.03007,-5.81614 25.04262,21.65562 -5.02709,5.81616 -8.9859,-7.76894 -20.59305,23.81459 -7.05886,-6.10521 20.59008,-23.81459 z"
       fill="#ffffff"
       id="path8027"
       style="fill:#ffffff;fill-opacity:1;stroke-width:2.9923" />
  </g>
</svg>
